<svg width="24" height="24" viewBox="0 0 24 24" fill="none" xmlns="http://www.w3.org/2000/svg">
<path d="M3 9C2.5 9 2 7.5 2 6.5C2 5.5 2.5 4 3 4C3.5 4 4.5 5 4.5 5C4.5 4 5.5 3 6 2C6.5 2 7.5 3 7.5 4C8.5 3 9 3.5 11 3.5C12.5 3.5 15 4.5 16 5.5C16 5.5 17 6.49999 18 6.5C17 6.50001 16 7.5 16 7.5C15 8.5 12.5 9.5 11 9.5C9 9.5 8.5 10 7.5 9C7.5 10 6.5 11 6 11C5.5 10 4.5 9 4.5 8C4.5 8 3.5 9 3 9Z" fill="white" stroke="white" stroke-width="2" stroke-linejoin="round"/>
<path d="M21 21L17.5 17.5L14 14M21 14L14 21" stroke="white" stroke-width="2" stroke-linecap="round"/>
</svg>
