<svg width="24" height="24" viewBox="0 0 24 24" fill="none" xmlns="http://www.w3.org/2000/svg">
<path d="M8.60002 14.112C8.60002 14.5493 8.74402 14.8267 9.03202 14.944C9.33068 15.0507 9.74135 15.104 10.264 15.104L11.8 15.12L13.976 15.056C14.5733 15.056 14.9627 14.9813 15.144 14.832C15.3253 14.6827 15.416 14.448 15.416 14.128C15.416 13.84 15.3094 13.6107 15.096 13.44C14.8933 13.2693 14.4987 13.184 13.912 13.184H13.384L8.04002 13.072C7.03735 13.072 6.32802 12.8213 5.91202 12.32C5.50668 11.808 5.30402 11.0293 5.30402 9.984C5.30402 9.09866 5.43202 8.41066 5.68802 7.92C5.95468 7.42933 6.42935 7.09866 7.11202 6.928C7.80535 6.74666 8.70668 6.64 9.81602 6.608C10.936 6.576 11.688 6.56 12.072 6.56L14.344 6.592C15.2507 6.592 15.9813 6.66666 16.536 6.816C17.0907 6.95466 17.48 7.216 17.704 7.6C17.9387 7.984 18.088 8.33066 18.152 8.64C18.216 8.94933 18.248 9.376 18.248 9.92H15.064C15.064 9.54666 14.952 9.28533 14.728 9.136C14.5147 8.98666 14.2107 8.912 13.816 8.912L12.248 8.896L9.76802 8.976C9.43735 8.976 9.15468 9.04 8.92002 9.168C8.69602 9.28533 8.58402 9.488 8.58402 9.776C8.58402 10.1707 8.71735 10.432 8.98402 10.56C9.26135 10.6773 9.63468 10.736 10.104 10.736H10.44L12.616 10.768L14.76 10.784C16.136 10.784 17.1333 11.0027 17.752 11.44C18.3813 11.8667 18.696 12.7307 18.696 14.032C18.696 15.2907 18.4133 16.1547 17.848 16.624C17.2934 17.0933 16.3707 17.328 15.08 17.328L10.92 17.44L8.74402 17.392C7.59202 17.392 6.74402 17.2053 6.20002 16.832C5.65602 16.4587 5.38402 15.7067 5.38402 14.576V13.936H8.58402L8.60002 14.112Z" fill="white"/>
</svg>
