<svg width="177" height="17" viewBox="0 0 177 17" fill="none" xmlns="http://www.w3.org/2000/svg">
<path d="M22.536 16.176V3.984L15.48 16.176H11.568L4.584 3.984V16.176H0V0.167999H7.752L13.632 10.776L19.44 0.167999H27.144V16.176H22.536Z" fill="white"/>
<path d="M49.1691 0.167999V3.816H36.1851V6.552H48.3051V9.72H36.1851V12.552H49.1691V16.176H31.3131V0.167999H49.1691Z" fill="white"/>
<path d="M68.6944 12.168V16.176H52.7584V0.167999H57.6304V12.168H68.6944Z" fill="white"/>
<path d="M81.7346 0L85.6226 0.0239997C88.4706 0.0239997 90.4146 0.496 91.4546 1.44C92.5106 2.384 93.0386 4.272 93.0386 7.104V7.872C93.0386 11.2 92.6226 13.432 91.7906 14.568C90.9586 15.688 88.8546 16.248 85.4786 16.248L81.8066 16.32L80.2706 16.344L76.9586 16.224C75.1026 16.224 73.6706 15.808 72.6626 14.976C71.6546 14.128 71.1506 12.768 71.1506 10.896L71.1026 7.944C71.1026 4.696 71.5186 2.576 72.3506 1.584C73.1826 0.576 75.1586 0.0720005 78.2786 0.0720005L81.7346 0ZM79.0946 12.36L81.7106 12.408L84.2066 12.384C85.5826 12.384 86.5666 12.24 87.1586 11.952C87.7666 11.648 88.0706 10.912 88.0706 9.744L88.1186 7.584C88.1186 6.848 88.0706 6.224 87.9746 5.712C87.8946 5.184 87.7186 4.8 87.4466 4.56C87.1746 4.304 86.7666 4.136 86.2226 4.056C85.6946 3.976 85.1266 3.936 84.5186 3.936L79.6706 3.96C78.5666 3.96 77.7266 4.072 77.1506 4.296C76.5746 4.52 76.2386 5 76.1426 5.736C76.0626 6.456 76.0226 7.056 76.0226 7.536V8.616C76.0226 10.088 76.1906 11.08 76.5266 11.592C76.8786 12.104 77.7346 12.36 79.0946 12.36Z" fill="white"/>
<path d="M110.98 0.167999C113.876 0.167999 115.82 0.647999 116.812 1.608C117.804 2.568 118.3 4.488 118.3 7.368V9.216C118.3 9.968 118.284 10.496 118.252 10.8C118.236 11.104 118.148 11.728 117.988 12.672C117.828 13.6 117.276 14.416 116.332 15.12C115.388 15.824 114.204 16.176 112.78 16.176H96.8678V0.167999H110.98ZM113.38 8.232V8.088C113.38 6.52 113.204 5.464 112.852 4.92C112.5 4.376 111.556 4.104 110.02 4.104H101.74V12.264H109.948C111.452 12.264 112.396 11.984 112.78 11.424C113.18 10.864 113.38 9.8 113.38 8.232Z" fill="#FFE100"/>
<path d="M122.133 16.176V0.167999H127.005V16.176H122.133Z" fill="#FFE100"/>
<path d="M151.364 10.776C151.364 12.984 150.956 14.456 150.14 15.192C149.34 15.912 147.748 16.272 145.364 16.272L141.644 16.344L138.62 16.296C135.404 16.296 133.332 15.88 132.404 15.048C131.492 14.2 131.036 12.888 131.036 11.112L130.892 7.752C130.892 5.128 131.276 3.208 132.044 1.992C132.812 0.76 134.38 0.144 136.748 0.144L141.308 0.0239997C142.636 0.0239997 143.732 0.04 144.596 0.0720005C145.46 0.0880003 146.508 0.16 147.74 0.287999C148.972 0.415999 149.852 0.96 150.38 1.92C150.908 2.864 151.172 4.16 151.172 5.808H146.444C146.444 5.072 146.26 4.584 145.892 4.344C145.54 4.088 144.972 3.96 144.188 3.96L142.82 3.936H141.476L139.004 3.96C137.532 3.96 136.628 4.232 136.292 4.776C135.972 5.32 135.812 6.448 135.812 8.16C135.812 9.92 136.004 11.064 136.388 11.592C136.772 12.12 137.796 12.384 139.46 12.384L141.356 12.432L143.852 12.408C144.828 12.408 145.524 12.272 145.94 12C146.356 11.728 146.564 11.088 146.564 10.08H151.34L151.364 10.776Z" fill="#FFE100"/>
<path d="M162.525 6.192L169.125 0.167999H175.845L166.677 8.088L176.853 16.176H169.701L162.525 10.08H160.029V16.176H155.157V0.167999H160.029V6.192H162.525Z" fill="#FFE100"/>
</svg>
